<svg width="33" height="33" viewBox="0 0 33 33" fill="none" xmlns="http://www.w3.org/2000/svg">
<g filter="url(#filter0_d)">
<path d="M16.5 0C9.60708 0 4 5.60762 4 12.5C4 19.3924 9.60708 25 16.5 25C23.3929 25 29 19.3924 29 12.5C29 5.60762 23.3929 0 16.5 0ZM16.5 23.9583C10.1818 23.9583 5.04165 18.8182 5.04165 12.5C5.04165 6.18184 10.1818 1.04165 16.5 1.04165C22.8182 1.04165 27.9583 6.18184 27.9583 12.5C27.9583 18.8182 22.8182 23.9583 16.5 23.9583Z" fill="#FEFEFE"/>
</g>
<path d="M21.4693 12.062L14.1776 7.37451C14.0179 7.27026 13.8114 7.26465 13.6466 7.35518C13.4788 7.44673 13.375 7.62173 13.375 7.81245V17.1874C13.375 17.3782 13.4788 17.5532 13.6466 17.6447C13.7239 17.687 13.8104 17.7083 13.8958 17.7083C13.9935 17.7083 14.0922 17.6808 14.1776 17.6254L21.4693 12.9379C21.6178 12.8423 21.7083 12.677 21.7083 12.5C21.7083 12.3229 21.6178 12.1577 21.4693 12.062ZM14.4167 16.2332V8.76665L20.2242 12.5L14.4167 16.2332Z" fill="#FEFEFE"/>
<defs>
<filter id="filter0_d" x="0" y="0" width="33" height="33" filterUnits="userSpaceOnUse" color-interpolation-filters="sRGB">
<feFlood flood-opacity="0" result="BackgroundImageFix"/>
<feColorMatrix in="SourceAlpha" type="matrix" values="0 0 0 0 0 0 0 0 0 0 0 0 0 0 0 0 0 0 127 0"/>
<feOffset dy="4"/>
<feGaussianBlur stdDeviation="2"/>
<feColorMatrix type="matrix" values="0 0 0 0 0 0 0 0 0 0 0 0 0 0 0 0 0 0 0.25 0"/>
<feBlend mode="normal" in2="BackgroundImageFix" result="effect1_dropShadow"/>
<feBlend mode="normal" in="SourceGraphic" in2="effect1_dropShadow" result="shape"/>
</filter>
</defs>
</svg>
